<svg id="Capa_1" data-name="Capa 1" xmlns="http://www.w3.org/2000/svg" viewBox="0 0 114.01 113.99"><defs><style>.cls-1{fill:#fff;}</style></defs><title>Logo2</title><path id="Sustracción_4" data-name="Sustracción 4" class="cls-1" d="M844,665a56.54,56.54,0,0,1-23.87-5.22c.68-.16,1.38-.39,1.94-.57,4-1.28,8-2.61,12-3.89l.2-.06.1,0,.13,0h0l4.56-1.49c2.92-1,6-2,8.85-2.94l.17-.06h0l.07,0h.07c7-2.35,14.24-4.77,21.44-6.89a26,26,0,0,1,7.22-1.17,14.64,14.64,0,0,1,9.65,3.4A56.79,56.79,0,0,1,844,665Zm-27.49-7.06h0a56.59,56.59,0,0,1-7.34-4.82l.09,0h0l.09,0,.17,0c9.35-2.59,19.36-5.43,29.26-8.58,3.43-1.1,6.82-2.37,10.1-3.6H849c3.93-1.47,8-3,12.08-4.2a75,75,0,0,1,16.34-3c.52,0,1,0,1.5,0,5.44,0,8,2.2,9.6,8.41a9.17,9.17,0,0,1,.24,1.27c-.26.34-.53.67-.8,1a13.8,13.8,0,0,0-4.81-3.27,17.43,17.43,0,0,0-6.62-1.18,31.29,31.29,0,0,0-3.62.24c-9.75,1.21-18.88,4.45-28.15,8-5.88,2.22-11.87,4.24-17.67,6.2l-.09,0-.21.07h0c-2.83,1-6,2-9.13,3.12a10.93,10.93,0,0,0-1.11.48Zm-10.42-7.37h0a58,58,0,0,1-5.16-5.24c13.83-2.08,26.94-6.31,37.94-10.17,2.58-.9,5.3-1.9,7.49-2.7h0l.13-.05,0,0h0c5.8-2.12,11.8-4.32,17.84-6,4.6-1.32,9.45-1.7,15.33-1.86h.29c4.08,0,7,2.42,8,6.65.13.57.23,1.08.3,1.48v.08a18,18,0,0,0,.7,2.78,5.38,5.38,0,0,0,2,2.55,3.72,3.72,0,0,0,.93.7c-.42.67-.88,1.36-1.36,2v-.21a7.25,7.25,0,0,0-1.76-4.48l.1.13c-2.93-3.85-6.8-5.64-12.17-5.64a30.5,30.5,0,0,0-3.82.25,89.15,89.15,0,0,0-15.73,3.5c-4.42,1.38-9.22,3.16-15.1,5.62a186.05,186.05,0,0,1-33.5,10.36,11.39,11.39,0,0,1-1.43.17h0l-1.13.12Zm-7.33-7.89h0a57.67,57.67,0,0,1-3.89-5.77c3-.65,6.17-1.28,8.46-1.74h0c7.92-1.61,16.11-3.27,24-5.57,7.27-2.11,14.49-4.77,21.47-7.34h.07l.09,0c4-1.44,8-2.94,12.06-4.33A48.84,48.84,0,0,1,877,615c.69,0,1.44,0,2.19.06,4.74.27,7.65,2.48,8.88,6.77a28.5,28.5,0,0,0,2.5,6.42,7,7,0,0,0,5.36,3.32c-.57,1.25-1.18,2.49-1.82,3.66-2.94-1.2-4.68-3.43-5.64-7.25a7.69,7.69,0,0,0-3.25-4.7,12.2,12.2,0,0,0-5.4-1.74,41.15,41.15,0,0,0-4.29-.26,20.42,20.42,0,0,0-4.87.53c-7.39,1.84-15,4-22.64,6.55-3.5,1.15-7,2.54-10.31,3.88l-.05,0,0,0c-2.26.9-4.82,1.93-7.35,2.85-11,4-22.6,6.15-31.5,7.58Zm-5.59-8.85h0a57,57,0,1,1,101.69-51.59c.6,1.17,1.15,2.36,1.66,3.57a57.28,57.28,0,0,1,1.26,41.13l.05-.15,0-.1h-.09c-.45,0-1-.12-1.53-.22-2.67-.5-6.31-1.64-7-5.83a9.6,9.6,0,0,0-4.44-6.81,15.31,15.31,0,0,0-8.16-2h-.49c-.7.1-1.39.18-2.27.29l-.15,0h-.08c-1.77.22-3.6.45-5.45.77-9.42,1.67-18.38,5.25-26.74,8.77a166.54,166.54,0,0,1-41,11.32c-1.74.25-3.53.44-5.25.62H795Zm30.29-23.16-1.82,1.2a3.1,3.1,0,0,0,.79,1.23,3.76,3.76,0,0,0,1,.68,3.49,3.49,0,0,0,1,.29,7,7,0,0,0,.91.06,4.58,4.58,0,0,0,1.51-.23,4.3,4.3,0,0,0,1.24-.64,3.66,3.66,0,0,0,.9-1,3.56,3.56,0,0,0,.47-1.22,4,4,0,0,0,.05-.6v-.15a2.76,2.76,0,0,0-.14-.76,2.07,2.07,0,0,0-1.05-1.25,3.38,3.38,0,0,0,.77-.74,2.63,2.63,0,0,0,.54-1.57,3.14,3.14,0,0,0-.09-.75,2.35,2.35,0,0,0-.4-.88,2.72,2.72,0,0,0-.68-.63,3,3,0,0,0-.87-.37,3.22,3.22,0,0,0-.93-.13,4.81,4.81,0,0,0-2.11.46,4.53,4.53,0,0,0-1.64,1.37l1.14,1.23a2.59,2.59,0,0,1,1.15-.75,4.26,4.26,0,0,1,1.05-.17,1.62,1.62,0,0,1,.49.08.94.94,0,0,1,.39.22.85.85,0,0,1,.24.33.74.74,0,0,1,0,.44,1.23,1.23,0,0,1-.43.78,1.3,1.3,0,0,1-.83.3h-1.48l-.26,1.88H826a1.48,1.48,0,0,1,1.13.46,1,1,0,0,1,.25.67,1.34,1.34,0,0,1,0,.21,1.46,1.46,0,0,1-.6.87,2.12,2.12,0,0,1-1.38.39,1.87,1.87,0,0,1-1.1-.35A2.17,2.17,0,0,1,823.46,610.67Zm-5.76-7.41a5.42,5.42,0,0,0-1.39.19A4.58,4.58,0,0,0,815,604a4,4,0,0,0-1,1,3.3,3.3,0,0,0-.55,1.44l-.63,4.43a2.92,2.92,0,0,0,0,.51,2,2,0,0,0,.2.93,2.54,2.54,0,0,0,.75,1,3.12,3.12,0,0,0,1.15.58,4.62,4.62,0,0,0,1.34.19,5,5,0,0,0,1.38-.19,4.46,4.46,0,0,0,1.32-.58,4,4,0,0,0,1-1,3.38,3.38,0,0,0,.55-1.44l.63-4.43a4.21,4.21,0,0,0,0-.51A2.36,2.36,0,0,0,821,605a2.57,2.57,0,0,0-.75-1,3.44,3.44,0,0,0-1.16-.59A5.09,5.09,0,0,0,817.7,603.26Zm-12.8,8H806L804.81,614h2.05l.42-1c.18-.4.4-.93.77-1.78h2.23l.71-2h-2.06l.3-.72h1.88l.86-2h-1.82l1.16-2.61H809.2l-1.12,2.61H807l1.13-2.61h-2.07c-.17.38-.36.81-.56,1.29s-.4.94-.57,1.32h-2.2l-.73,2h2c-.09.21-.14.33-.18.41l-.15.31H801.8l-.67,2h1.72l-1.2,2.76h2.07l1.19-2.76Zm62.25-30.46a9,9,0,0,0-2.07.24,5.6,5.6,0,0,0-1.88.8,5.14,5.14,0,0,0-1.44,1.46,5.4,5.4,0,0,0-.76,2.2l-.6,4.25a6.3,6.3,0,0,0,0,.75,4.06,4.06,0,0,0,.18,1.2,3.54,3.54,0,0,0,2.22,2.26,5,5,0,0,0,1.68.29,3.41,3.41,0,0,0,1.43-.34,3.62,3.62,0,0,0,1.27-1l.3,1h2.85l1.62-11.92a11.08,11.08,0,0,0-2.29-.92A9.32,9.32,0,0,0,867.15,580.8Zm-40.93,0a6.39,6.39,0,0,0-1.94.3,5.91,5.91,0,0,0-1.79.9,5.33,5.33,0,0,0-2.11,3.58l-.58,4a5.36,5.36,0,0,0,0,.7,3.5,3.5,0,0,0,.23,1.32,3.71,3.71,0,0,0,1,1.44,4.13,4.13,0,0,0,1.54.87,5.71,5.71,0,0,0,1.84.29,6.61,6.61,0,0,0,2.65-.6,7,7,0,0,0,2.57-2.07l-2-1.43a3,3,0,0,1-1.13.78,4,4,0,0,1-1.4.27,2.78,2.78,0,0,1-.76-.1,1.83,1.83,0,0,1-.63-.3,1.15,1.15,0,0,1-.38-.49,1.22,1.22,0,0,1-.08-.68l.1-.63a6.35,6.35,0,0,0,2.15.4h.08a6.23,6.23,0,0,0,2.22-.4,5.09,5.09,0,0,0,1.91-1.29,3.92,3.92,0,0,0,1-2.21,4.26,4.26,0,0,0,.08-.8,3.14,3.14,0,0,0-.22-1.22,3.76,3.76,0,0,0-.93-1.48,4.08,4.08,0,0,0-1.51-.9,5.9,5.9,0,0,0-1.87-.3Zm8.08-2.88-1.63,11.55a7.46,7.46,0,0,0-.09,1.16,4.81,4.81,0,0,0,.07.92,3.57,3.57,0,0,0,.63,1.47,2.68,2.68,0,0,0,1.13.9,4,4,0,0,0,1.59.3,7.39,7.39,0,0,0,2.18-.37l.37-2.53a4.26,4.26,0,0,1-.8.08,1.82,1.82,0,0,1-1.15-.33,1.41,1.41,0,0,1-.5-1.17,3.64,3.64,0,0,1,0-.45l.72-5.28h2.35l.43-3.12h-2.35l.17-3.13ZM814.1,579a7.91,7.91,0,0,0-2.17.32,6.74,6.74,0,0,0-2,1,5.87,5.87,0,0,0-1.54,1.6,5.14,5.14,0,0,0-.81,2.24l-.67,4.76a6.83,6.83,0,0,0-.06.78,4.34,4.34,0,0,0,.25,1.48,4,4,0,0,0,1.1,1.58,5.2,5.2,0,0,0,1.73.94A6.37,6.37,0,0,0,812,594a6.53,6.53,0,0,0,1.64-.21,6.82,6.82,0,0,0,1.69-.66,7,7,0,0,0,2.83-3.06l-3.24-1.17a2.61,2.61,0,0,1-1.08,1.22,3,3,0,0,1-1.37.37,1.89,1.89,0,0,1-1.25-.44,1.2,1.2,0,0,1-.45-1,1.07,1.07,0,0,1,0-.25l.64-4.63a1.63,1.63,0,0,1,.8-1.2,2.77,2.77,0,0,1,1.43-.42,2.19,2.19,0,0,1,1.2.35,1.61,1.61,0,0,1,.67,1.1l3.45-1.1a4.21,4.21,0,0,0-.63-1.85,4.09,4.09,0,0,0-1.18-1.2,4.68,4.68,0,0,0-1.5-.66,7.06,7.06,0,0,0-1.59-.19Zm66.15,1.78a6.85,6.85,0,0,0-2,.3,5.45,5.45,0,0,0-1.71.88,4.91,4.91,0,0,0-1.27,1.45,5.34,5.34,0,0,0-.66,2L873.4,594h3.48l1.17-8.42a1.8,1.8,0,0,1,.49-1.07,2.32,2.32,0,0,1,.91-.56,3.05,3.05,0,0,1,.9-.12.6.6,0,0,1,.23,0,4.29,4.29,0,0,1,1.12.18l.1-.76.3-2.2a7.63,7.63,0,0,0-1-.2A6.82,6.82,0,0,0,880.25,580.8ZM853.32,584a1.78,1.78,0,0,1,1,.3.7.7,0,0,1,.37.65.46.46,0,0,1,0,.2L853.47,594h3.45l1.23-8.78a5.36,5.36,0,0,0,.05-.7,3.57,3.57,0,0,0-1.1-2.62,3.93,3.93,0,0,0-1.43-.82,5.26,5.26,0,0,0-1.72-.28,5.11,5.11,0,0,0-1.89.39,4.47,4.47,0,0,0-1.69,1.23,2,2,0,0,0-.55-.81,2.64,2.64,0,0,0-.8-.5,3.76,3.76,0,0,0-.93-.25,7.77,7.77,0,0,0-1-.06,8.36,8.36,0,0,0-2.57.44,7.62,7.62,0,0,0-2.27,1.16L840.65,594h3.4l1.33-9.5a1.53,1.53,0,0,1,.66-.39,2.74,2.74,0,0,1,.76-.11,2,2,0,0,1,1.1.35.8.8,0,0,1,.4.72v.15L847.08,594h3.32l1.25-8.87a1.11,1.11,0,0,1,.59-.84A2.16,2.16,0,0,1,853.32,584Zm-36.86,28.06a2.33,2.33,0,0,1-.79-.12,1.43,1.43,0,0,1-.58-.38.79.79,0,0,1-.2-.56v-.09l.62-4.42a1.25,1.25,0,0,1,.39-.66,2,2,0,0,1,.69-.4,2.51,2.51,0,0,1,.82-.13,2.06,2.06,0,0,1,.78.13,1.5,1.5,0,0,1,.58.41.79.79,0,0,1,.19.55v.09l-.63,4.43a1.18,1.18,0,0,1-.38.64,2,2,0,0,1-.68.38A2.5,2.5,0,0,1,816.46,612.06ZM807,609.4h-1.44l.39-1h1.45l-.4,1Zm58.47-18.32a2,2,0,0,1-1.17-.38,1.06,1.06,0,0,1-.42-.9.78.78,0,0,1,0-.22l.57-4.1a1.5,1.5,0,0,1,.53-1,2.66,2.66,0,0,1,1-.53,3.18,3.18,0,0,1,.82-.1h.35a2.41,2.41,0,0,1,1,.33l-.9,6.42a4.37,4.37,0,0,1-.8.34A3.94,3.94,0,0,1,865.47,591.08Zm-40.09-4.23a5.71,5.71,0,0,1-1.75-.27l.15-1a1.62,1.62,0,0,1,.72-1.14,2.2,2.2,0,0,1,1.92-.35,1.71,1.71,0,0,1,.54.27,1,1,0,0,1,.36.47.87.87,0,0,1,.1.45.78.78,0,0,1,0,.22,1.32,1.32,0,0,1-.71,1A2.63,2.63,0,0,1,825.38,586.85Z" transform="translate(-786.99 -551.01)"/></svg>