<svg id="Capa_1" data-name="Capa 1" xmlns="http://www.w3.org/2000/svg" viewBox="0 0 219.78 143.47"><defs><style>.cls-1,.cls-2{fill:#fff;}.cls-2,.cls-3{opacity:0.5;isolation:isolate;}.cls-3,.cls-4{fill:#f2f2f2;}</style></defs><title>logo22</title><path id="Trazado_328" data-name="Trazado 328" class="cls-1" d="M946.13,503.66l-.1.13a8,8,0,0,1-11,1.7c-4.72-3.39-9.18-6.6-13.71-9.71-15.53-10.65-34.71-8-44.68,5.94-10.4,14.61-7.77,34.36,5.89,44.19,15.52,11.16,34.53,7.81,46.27-8.18,11.54-15.72,32.57-44.43,39.6-54a7.7,7.7,0,0,1,6.36-3.16h0a8.64,8.64,0,0,1,6.85,13.73c-11.22,15.39-29.49,40.39-40.65,55.37a48.39,48.39,0,0,1-66.8,11.07c-21.53-15.18-27.54-44.15-13.62-65.74,14.66-22.75,43.3-29.77,66.43-15.79a211.37,211.37,0,0,1,17.45,12.28A8.72,8.72,0,0,1,946.13,503.66Z" transform="translate(-853 -472)"/><path id="Trazado_329" data-name="Trazado 329" class="cls-2" d="M1054.34,495.59l.06,0a9.65,9.65,0,0,0,11.5,0l.13-.1a7.59,7.59,0,0,0,1.58-10.63,8,8,0,0,0-1.08-1.17q-1.82-1.56-3.83-3a48.37,48.37,0,0,0-66.79,11.07c-11,14.8-29,39.39-40.24,54.81-3,4.18-2.22,10.23,2.16,13a7.83,7.83,0,0,0,10.64-1.85c7-9.6,28.06-38.3,39.6-54C1019.8,487.77,1038.82,484.43,1054.34,495.59Z" transform="translate(-853 -472)"/><path id="Trazado_330" data-name="Trazado 330" class="cls-1" d="M1063.9,547.83a10.26,10.26,0,0,0-11.79-.32c-10.41,6.73-24.57,6.43-36.56-1.8-4.47-3.06-8.86-6.22-13.5-9.56a8.24,8.24,0,0,0-11.42,1.76h0A8.62,8.62,0,0,0,992.37,550a209.3,209.3,0,0,0,17.53,12.34,47.89,47.89,0,0,0,54-2.42,7.56,7.56,0,0,0,1.49-10.57,8.08,8.08,0,0,0-1.49-1.49Z" transform="translate(-853 -472)"/><path id="Trazado_332" data-name="Trazado 332" class="cls-3" d="M866.63,589.36a13.81,13.81,0,0,1,3.73.51,9.65,9.65,0,0,1,3.2,1.57,7.67,7.67,0,0,1,2.23,2.67,8.22,8.22,0,0,1,.84,3.87v8.65a8.25,8.25,0,0,1-.84,3.84,7.61,7.61,0,0,1-2.23,2.65,9.51,9.51,0,0,1-3.2,1.51,15.13,15.13,0,0,1-3.73.47h-5.69a4,4,0,0,1-3.94-4V593.31a4,4,0,0,1,3.94-3.95h5.69Zm.22,19.63a3.34,3.34,0,0,0,2.45-.76,2.72,2.72,0,0,0,.79-2v-8a2.6,2.6,0,0,0-.8-2,3.53,3.53,0,0,0-2.44-.73h-3.31V609Z" transform="translate(-853 -472)"/><path id="Trazado_333" data-name="Trazado 333" class="cls-3" d="M909.74,609.43a4.18,4.18,0,0,0,2-.44,1.73,1.73,0,0,0,1.06-1.52,1.3,1.3,0,0,0-.36-1,3.54,3.54,0,0,0-1-.75,8.09,8.09,0,0,0-1.42-.53,12.58,12.58,0,0,0-1.6-.32,12.6,12.6,0,0,1-3-.88,8.88,8.88,0,0,1-2.53-1.62,7.55,7.55,0,0,1-1.74-2.41,7.69,7.69,0,0,1-.66-3.27,6.87,6.87,0,0,1,.79-3.33,7.36,7.36,0,0,1,2.09-2.42,9.12,9.12,0,0,1,3-1.47,12.19,12.19,0,0,1,3.45-.49,15,15,0,0,1,2.31.18,9.35,9.35,0,0,1,2.25.65,10.57,10.57,0,0,1,2.18,1.28h0a2.28,2.28,0,0,1,0,3.58l-.74.57a2.31,2.31,0,0,1-2.69.05,5.78,5.78,0,0,0-1.05-.54,6,6,0,0,0-2.32-.51.08.08,0,0,0-.07,0,3.09,3.09,0,0,0-1.91.59,2.07,2.07,0,0,0-.82,1.7,1.88,1.88,0,0,0,1,1.51,7.42,7.42,0,0,0,2.43.89,32.53,32.53,0,0,1,3.37.84,8.93,8.93,0,0,1,2.91,1.49,7,7,0,0,1,2,2.51,7.8,7.8,0,0,1,.61,3.31v.61a6.3,6.3,0,0,1-1,3.29,8.71,8.71,0,0,1-2.38,2.42,11.1,11.1,0,0,1-3.22,1.49,13.43,13.43,0,0,1-3.56.51,10.26,10.26,0,0,1-4.64-1.17,11.2,11.2,0,0,1-2.46-1.69,2.27,2.27,0,0,1-.15-3.21l.13-.13,1-1a2.21,2.21,0,0,1,2.77-.15,6.34,6.34,0,0,0,1,.58,7.74,7.74,0,0,0,2.75.69Z" transform="translate(-853 -472)"/><path id="Trazado_334" data-name="Trazado 334" class="cls-3" d="M925.25,615.1h0a3.26,3.26,0,0,1-3.26-3.25V592.62a3.26,3.26,0,0,1,3.26-3.26h0a3.25,3.25,0,0,1,3.25,3.26h0v19.23A3.25,3.25,0,0,1,925.25,615.1Z" transform="translate(-853 -472)"/><path id="Trazado_335" data-name="Trazado 335" class="cls-3" d="M942,594.78l-.51,0a3.64,3.64,0,0,0-1.5.46,3.22,3.22,0,0,0-1.11,1,2.41,2.41,0,0,0-.44,1.45v8.83a2.55,2.55,0,0,0,.57,1.7,3.44,3.44,0,0,0,1.4,1,4.78,4.78,0,0,0,1.8.32,4.68,4.68,0,0,0,1.8-.34,3.84,3.84,0,0,0,1.4-1,2.55,2.55,0,0,0,.56-1.68v-.94h-1.76a2.35,2.35,0,0,1-2.35-2.35h0v-.75a2.35,2.35,0,0,1,2.35-2.35h5.66a2.35,2.35,0,0,1,2.35,2.35v4a8.43,8.43,0,0,1-.85,3.89,8.1,8.1,0,0,1-2.28,2.78,9.86,9.86,0,0,1-3.23,1.68,12.75,12.75,0,0,1-7.49,0,10.16,10.16,0,0,1-3.25-1.68,8.11,8.11,0,0,1-3.18-6.67v-8.83a8,8,0,0,1,.87-3.82,8.28,8.28,0,0,1,2.31-2.72,10.16,10.16,0,0,1,3.25-1.64,12.87,12.87,0,0,1,3.74-.54,12.14,12.14,0,0,1,2.55.27,9,9,0,0,1,2.51.93,9.17,9.17,0,0,1,2.21,1.7l0,0a2.34,2.34,0,0,1-.19,3.29,2.38,2.38,0,0,1-.6.39l-1.27.58a2.27,2.27,0,0,1-2.53-.37l-.25-.21a4.29,4.29,0,0,0-1.47-.72A4.52,4.52,0,0,0,942,594.78Z" transform="translate(-853 -472)"/><path id="Trazado_336" data-name="Trazado 336" class="cls-3" d="M958.45,589.36h1.06a3.25,3.25,0,0,1,2.82,1.64l5.19,9.18c.06.11.12.22.17.33l2.11,5,.18,0-.11-.69c-.07-.46-.16-1-.25-1.53s-.19-1.07-.26-1.53l-.11-.69V592.6a3.24,3.24,0,0,1,3.24-3.24h0a3.24,3.24,0,0,1,3.23,3.24v19.27a3.23,3.23,0,0,1-3.23,3.23H971a3.25,3.25,0,0,1-2.81-1.62l-4.8-8.37a3,3,0,0,1-.16-.31l-2.18-5-.18,0,.79,4.72a3.27,3.27,0,0,1,0,.54v6.78a3.23,3.23,0,0,1-3.23,3.23h0a3.23,3.23,0,0,1-3.23-3.23V592.6a3.24,3.24,0,0,1,3.23-3.24Z" transform="translate(-853 -472)"/><path id="Trazado_337" data-name="Trazado 337" class="cls-4" d="M995.93,615.46a13,13,0,0,1-3.71-.54,10.19,10.19,0,0,1-3.25-1.65,8.46,8.46,0,0,1-2.31-2.77,8.09,8.09,0,0,1-.87-3.83V597.8a8.13,8.13,0,0,1,.87-3.84,8.25,8.25,0,0,1,2.31-2.74,10.21,10.21,0,0,1,3.29-1.66A13.11,13.11,0,0,1,996,589a10.83,10.83,0,0,1,2.47.29,9.39,9.39,0,0,1,2.47,1,9.54,9.54,0,0,1,3.51,3.49,1.18,1.18,0,0,1-.45,1.6l-.15.07-3.24,1.31a1.18,1.18,0,0,1-1.34-.34,3.46,3.46,0,0,0-1.41-1A5.13,5.13,0,0,0,996,595a3.77,3.77,0,0,0-.58,0,4.25,4.25,0,0,0-2.16.85,2.25,2.25,0,0,0-.93,1.91v8a3.49,3.49,0,0,0,3.05,3.53h0a2.09,2.09,0,0,0,.43,0,4.46,4.46,0,0,0,2-.47,3.06,3.06,0,0,0,1.28-1,1.18,1.18,0,0,1,1.44-.34l3.48,1.6a1.19,1.19,0,0,1,.58,1.58,1.09,1.09,0,0,1-.08.15,10,10,0,0,1-1.2,1.49,10.45,10.45,0,0,1-2.33,1.8,9.74,9.74,0,0,1-2.54,1A10.73,10.73,0,0,1,995.93,615.46Z" transform="translate(-853 -472)"/><path id="Trazado_338" data-name="Trazado 338" class="cls-4" d="M1007,597.83a7.9,7.9,0,0,1,.9-3.87,8.45,8.45,0,0,1,2.42-2.76,10.62,10.62,0,0,1,3.42-1.65,14.21,14.21,0,0,1,7.83,0,10.22,10.22,0,0,1,3.42,1.65,8.78,8.78,0,0,1,2.42,2.76,7.68,7.68,0,0,1,.92,3.87v8.8a7.94,7.94,0,0,1-.9,3.88,8.55,8.55,0,0,1-2.42,2.76,10.62,10.62,0,0,1-3.42,1.65,14,14,0,0,1-3.91.55,14.44,14.44,0,0,1-3.92-.55,10.62,10.62,0,0,1-3.42-1.65,8.78,8.78,0,0,1-2.42-2.76,7.83,7.83,0,0,1-.93-3.88Zm6.5,8.8a2.1,2.1,0,0,0,.37,1.24,3.12,3.12,0,0,0,.94.87,4.14,4.14,0,0,0,1.35.53,7.07,7.07,0,0,0,1.52.16,6.37,6.37,0,0,0,1.51-.18,4.52,4.52,0,0,0,1.33-.53,2.79,2.79,0,0,0,.94-.87,2.11,2.11,0,0,0,.37-1.22v-8.8a2.31,2.31,0,0,0-.37-1.3,2.76,2.76,0,0,0-1-.9,5.23,5.23,0,0,0-1.36-.52,6.94,6.94,0,0,0-1.57-.18,6.12,6.12,0,0,0-1.48.18,4.12,4.12,0,0,0-1.31.56,3.06,3.06,0,0,0-.93.93,2.34,2.34,0,0,0-.35,1.23Z" transform="translate(-853 -472)"/><path id="Trazado_339" data-name="Trazado 339" class="cls-4" d="M1041.37,589.36a13.87,13.87,0,0,1,3.73.51,9.65,9.65,0,0,1,3.2,1.57,7.78,7.78,0,0,1,2.23,2.67,8.34,8.34,0,0,1,.84,3.87v8.65a8.25,8.25,0,0,1-.84,3.84,7.61,7.61,0,0,1-2.23,2.65,9.51,9.51,0,0,1-3.2,1.51,15.13,15.13,0,0,1-3.73.47h-5.69a4,4,0,0,1-3.94-4V593.31a4,4,0,0,1,3.94-3.95h5.69Zm.22,19.63a3.34,3.34,0,0,0,2.45-.76,2.67,2.67,0,0,0,.78-2v-8a2.56,2.56,0,0,0-.8-2,3.49,3.49,0,0,0-2.43-.73h-3.31V609Z" transform="translate(-853 -472)"/><path id="Trazado_340" data-name="Trazado 340" class="cls-4" d="M1063.36,599.47h6.58a1.92,1.92,0,0,1,1.93,1.93v1.78a1.93,1.93,0,0,1-1.93,1.93h-6.58a1.92,1.92,0,0,0-1.92,1.92h0a1.92,1.92,0,0,0,1.92,1.93h7.49a1.93,1.93,0,0,1,1.93,1.92h0v2.29a1.93,1.93,0,0,1-1.93,1.93h-14.07a1.92,1.92,0,0,1-1.92-1.93h0V591.29a1.93,1.93,0,0,1,1.92-1.93h14.07a1.94,1.94,0,0,1,1.93,1.93v2.26a1.93,1.93,0,0,1-1.93,1.92h-7.49a1.92,1.92,0,0,0-1.92,1.93v.14a1.92,1.92,0,0,0,1.92,1.93Z" transform="translate(-853 -472)"/><path id="Trazado_341" data-name="Trazado 341" class="cls-3" d="M888.78,599.47h6.58a1.92,1.92,0,0,1,1.93,1.93h0v1.78a1.93,1.93,0,0,1-1.93,1.93h-6.58a1.92,1.92,0,0,0-1.92,1.92h0a1.92,1.92,0,0,0,1.92,1.93h7.49a1.93,1.93,0,0,1,1.93,1.92h0v2.29a1.93,1.93,0,0,1-1.93,1.93H882.2a1.92,1.92,0,0,1-1.92-1.93h0V591.29a1.93,1.93,0,0,1,1.92-1.93h14.07a1.94,1.94,0,0,1,1.93,1.93v2.26a1.93,1.93,0,0,1-1.93,1.92h-7.49a1.92,1.92,0,0,0-1.92,1.93v.14a1.92,1.92,0,0,0,1.92,1.93Z" transform="translate(-853 -472)"/></svg>