<svg id="Capa_1" data-name="Capa 1" xmlns="http://www.w3.org/2000/svg" viewBox="0 0 114 114"><defs><style>.cls-1{fill:#368dff;}.cls-2,.cls-4{fill:#fff;}.cls-3,.cls-4{isolation:isolate;}.cls-4{font-size:15px;font-family:UniSansBoldItalic;letter-spacing:0.03em;}</style></defs><title>Logo</title><circle id="Elipse_1" data-name="Elipse 1" class="cls-1" cx="57" cy="57" r="57"/><path id="Trazado_198" data-name="Trazado 198" class="cls-2" d="M700.33,590.25a6,6,0,0,1-1.84-.29,4.27,4.27,0,0,1-1.54-.87,3.61,3.61,0,0,1-1-1.44,3.52,3.52,0,0,1-.23-1.33,5.34,5.34,0,0,1,0-.69l.58-4.06a5.33,5.33,0,0,1,2.11-3.57,5.91,5.91,0,0,1,1.79-.9,6.41,6.41,0,0,1,2-.3,5.89,5.89,0,0,1,1.86.3,4,4,0,0,1,1.51.9,3.63,3.63,0,0,1,.92,1.48,3,3,0,0,1,.23,1.22,4.26,4.26,0,0,1-.08.8,3.92,3.92,0,0,1-1,2.21,5.09,5.09,0,0,1-1.91,1.29,6.28,6.28,0,0,1-2.23.4h-.07a6.11,6.11,0,0,1-2.15-.4l-.1.63a1.32,1.32,0,0,0,.07.68,1.25,1.25,0,0,0,.39.49,1.83,1.83,0,0,0,.63.3,2.78,2.78,0,0,0,.76.1,3.75,3.75,0,0,0,1.4-.27,2.74,2.74,0,0,0,1.12-.78l2,1.43a7,7,0,0,1-2.58,2.07A6.53,6.53,0,0,1,700.33,590.25Zm1-7.4a2.63,2.63,0,0,0,1.31-.36,1.31,1.31,0,0,0,.71-1,.9.9,0,0,0,0-.23.87.87,0,0,0-.1-.45,1.06,1.06,0,0,0-.36-.48,1.93,1.93,0,0,0-.54-.26,2.2,2.2,0,0,0-1.92.35,1.67,1.67,0,0,0-.73,1.14l-.14,1A5.43,5.43,0,0,0,701.38,582.85ZM712,590.23a4.16,4.16,0,0,1-1.59-.3,3,3,0,0,1-1.14-.9,3.66,3.66,0,0,1-.62-1.48,5.82,5.82,0,0,1-.08-.92,8.63,8.63,0,0,1,.1-1.15l1.63-11.56h3.15l-.18,3.13h2.36l-.43,3.13h-2.35l-.72,5.27a3.91,3.91,0,0,0,0,.45,1.43,1.43,0,0,0,.5,1.18,1.88,1.88,0,0,0,1.15.32,5.29,5.29,0,0,0,.8-.07l-.38,2.52A7.61,7.61,0,0,1,712,590.23Zm11.13-13.43a7.73,7.73,0,0,1,1,.06,3.84,3.84,0,0,1,.94.25,2.9,2.9,0,0,1,.8.5,2.28,2.28,0,0,1,.55.82,4.29,4.29,0,0,1,1.68-1.24,5.11,5.11,0,0,1,1.89-.39,5.26,5.26,0,0,1,1.72.28,3.93,3.93,0,0,1,1.43.82,3.57,3.57,0,0,1,1.1,2.63,5.62,5.62,0,0,1-.05.7L732.92,590h-3.45l1.23-8.85a1.38,1.38,0,0,0,0-.2.73.73,0,0,0-.38-.65,1.77,1.77,0,0,0-1-.3,2.17,2.17,0,0,0-1.09.29,1.09,1.09,0,0,0-.59.84L726.4,590h-3.32l1.22-8.77v-.15a.81.81,0,0,0-.4-.73,2,2,0,0,0-1.1-.35,2.74,2.74,0,0,0-.76.11,1.62,1.62,0,0,0-.67.39l-1.32,9.5h-3.4l1.63-11.6a7.62,7.62,0,0,1,2.27-1.16A8.08,8.08,0,0,1,723.13,576.8Zm17.29,13.45a5,5,0,0,1-1.67-.29,3.5,3.5,0,0,1-1.37-.86,3.37,3.37,0,0,1-.85-1.4,4.06,4.06,0,0,1-.18-1.2,6.3,6.3,0,0,1,0-.75l.6-4.25a5.4,5.4,0,0,1,.76-2.2,5,5,0,0,1,1.44-1.46,5.6,5.6,0,0,1,1.88-.8,8.79,8.79,0,0,1,4.53.12,11.63,11.63,0,0,1,2.29.91L746.28,590h-2.85l-.3-1a3.62,3.62,0,0,1-1.27,1A3.42,3.42,0,0,1,740.42,590.25Zm2.43-10.4a3.31,3.31,0,0,0-.83.1,2.69,2.69,0,0,0-1,.53,1.5,1.5,0,0,0-.53,1l-.57,4.1a1.46,1.46,0,0,0,0,.22,1.09,1.09,0,0,0,.43.9,2,2,0,0,0,1.17.38,3.94,3.94,0,0,0,1-.14,4.37,4.37,0,0,0,.8-.34l.9-6.42a2.41,2.41,0,0,0-1-.33Zm13.4-3.05a5.47,5.47,0,0,1,.9.08,7.6,7.6,0,0,1,1,.19l-.3,2.2-.1.76a4.3,4.3,0,0,0-1.13-.18.78.78,0,0,0-.22,0,3.05,3.05,0,0,0-.9.12,2.32,2.32,0,0,0-.91.56,1.8,1.8,0,0,0-.49,1.07L752.88,590H749.4l1.2-8.55a5.45,5.45,0,0,1,.66-2,4.89,4.89,0,0,1,1.27-1.45,5.42,5.42,0,0,1,1.71-.87A6.85,6.85,0,0,1,756.25,576.8Z" transform="translate(-663 -547)"/><g class="cls-3"><text class="cls-4" transform="translate(14 63)">#03</text></g><path id="Trazado_199" data-name="Trazado 199" class="cls-2" d="M688,590a6.65,6.65,0,0,1-2.08-.32,5.05,5.05,0,0,1-1.73-1,3.87,3.87,0,0,1-1.1-1.57,4.11,4.11,0,0,1-.25-1.48,5.12,5.12,0,0,1,.06-.78l.67-4.76a5.21,5.21,0,0,1,.8-2.25,6.37,6.37,0,0,1,1.55-1.6,7,7,0,0,1,2-1,7.65,7.65,0,0,1,2.17-.32,6.54,6.54,0,0,1,1.59.2,4.78,4.78,0,0,1,1.5.65,4,4,0,0,1,1.82,3l-3.46,1.12a1.6,1.6,0,0,0-.66-1.11,2.14,2.14,0,0,0-1.2-.34,2.63,2.63,0,0,0-1.44.42,1.58,1.58,0,0,0-.79,1.2l-.64,4.62a1,1,0,0,0,0,.25,1.16,1.16,0,0,0,.44,1,1.87,1.87,0,0,0,1.25.45,2.82,2.82,0,0,0,1.37-.38,2.52,2.52,0,0,0,1.09-1.21l3.23,1.17a6.84,6.84,0,0,1-1.26,1.84,6.74,6.74,0,0,1-1.56,1.21A7,7,0,0,1,688,590Z" transform="translate(-663 -547)"/><path id="Trazado_204" data-name="Trazado 204" class="cls-2" d="M696.13,655.78h0c-1.22-.57-2.44-1.18-3.62-1.84a10.2,10.2,0,0,1,1.12-.48c3.12-1.09,6.3-2.16,9.37-3.2,5.85-2,11.89-4,17.76-6.23,9.27-3.5,18.39-6.75,28.15-8a31.29,31.29,0,0,1,3.62-.24,17.43,17.43,0,0,1,6.62,1.18,14.07,14.07,0,0,1,4.82,3.27c-.48.58-1,1.15-1.47,1.71a14.63,14.63,0,0,0-9.66-3.4,25.65,25.65,0,0,0-7.22,1.17c-7.25,2.13-14.53,4.57-21.58,6.93h0c-3,1-6,2-9,3l-4.56,1.49h0c-4.06,1.33-8.25,2.71-12.39,4-.6.19-1.27.41-1.94.57Zm-11-6.66h0c-1-.8-2.07-1.66-3.07-2.55.37-.05.75-.09,1.13-.12a11.72,11.72,0,0,0,1.45-.18,186.58,186.58,0,0,0,33.5-10.35c5.86-2.46,10.66-4.24,15.1-5.63a89.35,89.35,0,0,1,15.73-3.5,32.52,32.52,0,0,1,3.82-.25c5.37,0,9.24,1.79,12.17,5.65l-.1-.13a7.25,7.25,0,0,1,1.76,4.48c0,.06,0,.13,0,.21-.61.86-1.24,1.72-1.9,2.54a11.07,11.07,0,0,0-.23-1.28c-1.65-6.2-4.16-8.4-9.6-8.4-.48,0-1,0-1.5,0a75.14,75.14,0,0,0-16.35,2.94c-4.1,1.22-8.19,2.75-12.14,4.22-3.3,1.24-6.71,2.51-10.12,3.6-9.9,3.16-19.92,6-29.26,8.59l-.39.11Zm-8.23-7.79h0c-.74-.85-1.47-1.74-2.17-2.65,8.89-1.43,20.51-3.57,31.5-7.57,2.48-.9,5-1.9,7.39-2.87,3.37-1.35,6.86-2.75,10.36-3.9,7.64-2.52,15.25-4.72,22.64-6.55a20.48,20.48,0,0,1,4.87-.53,40.82,40.82,0,0,1,4.29.26,12.24,12.24,0,0,1,5.41,1.74,7.69,7.69,0,0,1,3.24,4.7c1,3.81,2.7,6,5.64,7.25-.65,1.19-1.35,2.38-2.08,3.52a4,4,0,0,1-.93-.71,5.28,5.28,0,0,1-2-2.55,16.89,16.89,0,0,1-.7-2.78c-.09-.48-.18-1-.32-1.56-1-4.22-3.9-6.64-8-6.64h-.29c-5.87.16-10.73.53-15.32,1.85-6.05,1.73-12.07,3.93-17.89,6-2.51.92-5.11,1.87-7.68,2.77-11,3.86-24.12,8.08-37.94,10.17Zm-6.06-8.42h0c-.6-1-1.17-2-1.7-3.08l1.86-.2c1.78-.19,3.63-.39,5.44-.65a166.54,166.54,0,0,0,41-11.32c8.36-3.52,17.31-7.09,26.74-8.77,1.8-.31,3.66-.55,5.45-.77l2.5-.32h.49a15.43,15.43,0,0,1,8.16,2,9.61,9.61,0,0,1,4.44,6.81c.73,4.18,4.37,5.33,7,5.83.5.09,1,.16,1.53.22h.08c-.57,1.64-1.22,3.27-1.94,4.85a7,7,0,0,1-5.37-3.32,29.48,29.48,0,0,1-2.5-6.42c-1.23-4.29-4.13-6.5-8.88-6.76-.72,0-1.46-.06-2.19-.06a48.52,48.52,0,0,0-15.91,2.88c-4.09,1.4-8.22,2.92-12.22,4.39-7,2.57-14.22,5.23-21.47,7.34-7.89,2.29-16.1,4-24,5.57h0c-2.77.57-5.64,1.15-8.45,1.75Zm101.38-.43a1.77,1.77,0,0,0-.67-.66,1.7,1.7,0,0,1,.67.66Z" transform="translate(-663 -547)"/></svg>