<svg id="Capa_1" data-name="Capa 1" xmlns="http://www.w3.org/2000/svg" viewBox="0 0 512 511.92"><defs><style>.cls-1{fill:#fff;}</style></defs><title>logo</title><path id="Sustracción_4" data-name="Sustracción 4" class="cls-1" d="M256,512a253.67,253.67,0,0,1-107.19-23.44c3-.72,6.19-1.75,8.71-2.56,18-5.75,35.93-11.72,53.89-17.47l.9-.27h1l20.48-6.69c13.11-4.49,26.94-9,39.74-13.2l.77-.27H275c31.44-10.55,63.95-21.42,96.29-30.94a117,117,0,0,1,32.42-5.26A65.71,65.71,0,0,1,447,427.12,255,255,0,0,1,256,512Zm-123.45-31.7h0a254,254,0,0,1-33-21.65h1.57c42-11.63,86.94-24.38,131.4-38.53C248,415.13,263.22,409.43,278,403.9h.54c17.65-6.6,35.92-13.47,54.25-18.86a337.07,337.07,0,0,1,73.38-13.47h6.74c24.43,0,35.92,9.88,43.11,37.77a42.42,42.42,0,0,1,1.08,5.7c-1.17,1.53-2.39,3-3.6,4.49a61.91,61.91,0,0,0-21.6-14.68,78.26,78.26,0,0,0-29.73-5.3,140.48,140.48,0,0,0-16.26,1.07c-43.78,5.44-84.78,20-126.41,35.93-26.41,10-53.31,19-79.36,27.85h-.4l-.94.31h0c-12.71,4.49-26.95,9-41,14a49.9,49.9,0,0,0-5,2.16Zm-46.8-33.1h0a262.53,262.53,0,0,1-23.17-23.53c62.11-9.34,121-28.34,170.39-45.67,11.58-4.05,23.8-8.54,33.63-12.13h0l.59-.22h0c26-9.52,53-19.4,80.11-27,20.66-5.93,42.44-7.63,68.85-8.35h1.3c18.32,0,31.44,10.87,35.93,29.86.58,2.56,1,4.85,1.35,6.65v.36a80,80,0,0,0,3.14,12.48,24.1,24.1,0,0,0,9,11.45,16.47,16.47,0,0,0,4.18,3.15c-1.89,3-4,6.11-6.11,9v-.94a32.63,32.63,0,0,0-7.9-20.12l.44.58c-13.15-17.29-30.53-25.33-54.65-25.33a136.44,136.44,0,0,0-17.15,1.13A400,400,0,0,0,315,374.26c-19.85,6.2-41.4,14.19-67.81,25.24A835.69,835.69,0,0,1,96.79,446a51.33,51.33,0,0,1-6.42.76h0l-5.08.54ZM52.87,411.72h0A257.18,257.18,0,0,1,35.4,385.8c13.47-2.91,27.71-5.74,38-7.81h0c35.57-7.23,72.35-14.68,107.78-25,32.65-9.48,65.07-21.42,96.42-33h.72c18-6.46,35.93-13.2,54.16-19.44a219.39,219.39,0,0,1,71.76-13.16c3.1,0,6.47,0,9.84.27,21.28,1.21,34.35,11.14,39.88,30.4a128,128,0,0,0,11.22,28.83,31.44,31.44,0,0,0,24.07,14.91c-2.56,5.62-5.29,11.19-8.17,16.44-13.2-5.39-21-15.4-25.33-32.56a34.54,34.54,0,0,0-14.59-21.11,54.83,54.83,0,0,0-24.25-7.81,188,188,0,0,0-19.27-1.17A92,92,0,0,0,375.76,318c-33.19,8.27-67.36,18-101.67,29.42-15.72,5.16-31.44,11.4-46.3,17.42h-.23c-10.15,4-21.64,8.67-33,12.8-49.4,18-101.49,27.62-141.46,34ZM27.76,372h0c-64-126.1-13.61-280.2,112.5-344.18s280.2-13.61,344.18,112.5c2.69,5.25,5.16,10.6,7.45,16A257.23,257.23,0,0,1,497.55,341l.23-.67v-.45h-.41a40.74,40.74,0,0,1-6.87-1c-12-2.25-28.34-7.36-31.43-26.18a43.11,43.11,0,0,0-19.94-30.58,68.74,68.74,0,0,0-36.65-9h-2.2c-3.14.45-6.24.81-10.19,1.31h-1c-7.95,1-16.16,2-24.47,3.45-42.31,7.5-82.54,23.58-120.09,39.39A748.36,748.36,0,0,1,60.37,368.16c-7.82,1.12-15.86,2-23.58,2.78H36Zm136-104-8.17,5.39a13.82,13.82,0,0,0,3.55,5.53,16.81,16.81,0,0,0,4.49,3.05,15.24,15.24,0,0,0,4.49,1.3,31,31,0,0,0,4.08.27,20.48,20.48,0,0,0,6.78-1,19.25,19.25,0,0,0,5.57-2.87,16.52,16.52,0,0,0,4-4.49,16.21,16.21,0,0,0,2.11-5.48,18.79,18.79,0,0,0,.22-2.7v-.67a12.37,12.37,0,0,0-.63-3.41,9.3,9.3,0,0,0-4.71-5.62,15.11,15.11,0,0,0,3.45-3.32,11.84,11.84,0,0,0,2.43-7,14.13,14.13,0,0,0-.41-3.37,10.49,10.49,0,0,0-1.79-4,12.13,12.13,0,0,0-3.06-2.83,13.19,13.19,0,0,0-3.9-1.66,14.46,14.46,0,0,0-4.18-.59,21.54,21.54,0,0,0-9.47,2.07,20.23,20.23,0,0,0-7.37,6.15l5.12,5.52a11.63,11.63,0,0,1,5.16-3.36,19.4,19.4,0,0,1,4.72-.77,7.45,7.45,0,0,1,2.2.36,4.18,4.18,0,0,1,1.75,1,3.76,3.76,0,0,1,1.08,1.48,3.34,3.34,0,0,1,0,2,5.48,5.48,0,0,1-1.93,3.5,5.85,5.85,0,0,1-3.73,1.35H169l-1.16,8.44h7.32a6.63,6.63,0,0,1,5.07,2.07,4.55,4.55,0,0,1,1.13,3,7.37,7.37,0,0,1,0,.94,6.56,6.56,0,0,1-2.7,3.91,9.58,9.58,0,0,1-6.2,1.75,8.41,8.41,0,0,1-4.94-1.57,9.76,9.76,0,0,1-3.77-4.32Zm-25.87-33.27a24.38,24.38,0,0,0-6.24.85A20.57,20.57,0,0,0,125.8,238a18.07,18.07,0,0,0-4.49,4.49,14.84,14.84,0,0,0-2.47,6.47L116,268.86a12.51,12.51,0,0,0,0,2.29,9,9,0,0,0,.9,4.18,11.47,11.47,0,0,0,3.36,4.49,14.12,14.12,0,0,0,5.17,2.61,21.1,21.1,0,0,0,6,.85,22.72,22.72,0,0,0,6.19-.85,20.31,20.31,0,0,0,5.93-2.61,17.91,17.91,0,0,0,4.49-4.49,15.15,15.15,0,0,0,2.47-6.47L153.37,249a17.5,17.5,0,0,0,0-2.29,10.46,10.46,0,0,0-.63-4.18,11.54,11.54,0,0,0-3.36-4.49,15.39,15.39,0,0,0-5.21-2.65,22.66,22.66,0,0,0-6.25-.67ZM80.44,270.61h4.94L80,282.92h9.2l1.89-4.49c.81-1.8,1.8-4.18,3.46-8h10l3.19-9H98.54l1.35-3.23h8.44l3.86-9H104l5.21-11.72H99.75l-5,11.72H89.87L95,237.52h-9.3c-.76,1.7-1.62,3.63-2.52,5.79s-1.79,4.22-2.55,5.93H70.7l-3.28,9h9c-.41.94-.63,1.48-.81,1.84l-.67,1.39h-8.4l-3,9h7.72l-5.39,12.4h9.3l5.35-12.4ZM360,133.82a40.47,40.47,0,0,0-9.3,1.08,25.25,25.25,0,0,0-8.44,3.59,23,23,0,0,0-6.47,6.56,24.23,24.23,0,0,0-3.41,9.88L329.68,174a31.38,31.38,0,0,0,0,3.36,18.19,18.19,0,0,0,.81,5.39,15.89,15.89,0,0,0,10,10.15,22.08,22.08,0,0,0,7.55,1.3,15.25,15.25,0,0,0,6.42-1.52,16.42,16.42,0,0,0,5.7-4.49l1.35,4.49h12.8l7.27-53.53A49.48,49.48,0,0,0,371.27,135,42,42,0,0,0,360,133.82Zm-183.81,0a28.67,28.67,0,0,0-8.72,1.35,26.66,26.66,0,0,0-8,4A23.94,23.94,0,0,0,150,155.29l-2.61,18a27.59,27.59,0,0,0,0,3.15,15.57,15.57,0,0,0,1,5.92,16.61,16.61,0,0,0,4.49,6.47,18.47,18.47,0,0,0,6.91,3.91,25.82,25.82,0,0,0,8.27,1.3,29.66,29.66,0,0,0,11.9-2.69A31.55,31.55,0,0,0,191.5,182l-9-6.42a13.55,13.55,0,0,1-5.08,3.5,17.75,17.75,0,0,1-6.28,1.21,12.31,12.31,0,0,1-3.42-.45,8.28,8.28,0,0,1-2.83-1.34,5.17,5.17,0,0,1-1.7-2.2,5.45,5.45,0,0,1-.36-3.06l.45-2.83a28.4,28.4,0,0,0,9.65,1.8h.36a28.05,28.05,0,0,0,10-1.8,22.85,22.85,0,0,0,8.58-5.79,17.58,17.58,0,0,0,4.49-9.92,19.79,19.79,0,0,0,.36-3.6,14.11,14.11,0,0,0-1-5.48,16.78,16.78,0,0,0-4.18-6.64,18.1,18.1,0,0,0-6.78-4,26.32,26.32,0,0,0-8.39-1.35Zm36.28-12.93-7.32,51.87a33.57,33.57,0,0,0-.4,5.21,22,22,0,0,0,.31,4.13,16.05,16.05,0,0,0,2.83,6.6,12,12,0,0,0,5.08,4,18,18,0,0,0,7.14,1.35,33.29,33.29,0,0,0,9.79-1.66l1.66-11.36a19.77,19.77,0,0,1-3.59.36,8.23,8.23,0,0,1-5.17-1.49,6.31,6.31,0,0,1-2.24-5.25,13.62,13.62,0,0,1,0-2L223.79,149h10.55l1.93-14H225.72l.76-14Zm-90.71,4.85a35.4,35.4,0,0,0-9.75,1.44,30,30,0,0,0-9,4.49,26.42,26.42,0,0,0-6.92,7.18,23,23,0,0,0-3.63,10.06l-3,21.38a29.29,29.29,0,0,0-.27,3.5,19.36,19.36,0,0,0,1.12,6.65,17.86,17.86,0,0,0,4.94,7.09,23.32,23.32,0,0,0,7.77,4.22,28.44,28.44,0,0,0,9.3,1.35,29.47,29.47,0,0,0,7.36-.94,30.55,30.55,0,0,0,7.59-3A31.39,31.39,0,0,0,140,175.45l-14.55-5.25a11.7,11.7,0,0,1-4.85,5.48,13.53,13.53,0,0,1-6.15,1.66,8.48,8.48,0,0,1-5.62-2,5.37,5.37,0,0,1-2-4.49,5.24,5.24,0,0,1,0-1.12L109.68,149a7.3,7.3,0,0,1,3.59-5.39,12.39,12.39,0,0,1,6.42-1.89,9.91,9.91,0,0,1,5.39,1.57,7.23,7.23,0,0,1,3,4.94l15.49-4.94a19,19,0,0,0-2.83-8.31,18.36,18.36,0,0,0-5.3-5.38,21,21,0,0,0-6.73-3,31.82,31.82,0,0,0-7.14-.85Zm297.07,8a30.68,30.68,0,0,0-9,1.35,24.36,24.36,0,0,0-7.68,3.95,22.12,22.12,0,0,0-5.71,6.51,24,24,0,0,0-3,9l-5.43,38.57h15.62L409,155.29a8.09,8.09,0,0,1,2.2-4.81,10.53,10.53,0,0,1,4.08-2.51,13.88,13.88,0,0,1,4-.54,2.55,2.55,0,0,1,1,0,19.5,19.5,0,0,1,5,.81l.45-3.42,1.35-9.88a36.16,36.16,0,0,0-4.5-.89,30.32,30.32,0,0,0-3.81-.23ZM297.89,148.19a8,8,0,0,1,4.49,1.35,3.14,3.14,0,0,1,1.66,2.92,2,2,0,0,1,0,.9l-5.48,39.74h15.5l5.52-39.43a23.56,23.56,0,0,0,.22-3.14,16,16,0,0,0-4.94-11.77,17.53,17.53,0,0,0-6.42-3.68,23.57,23.57,0,0,0-7.72-1.26,23.09,23.09,0,0,0-8.49,1.75,20.11,20.11,0,0,0-7.59,5.53,9,9,0,0,0-2.47-3.64,11.88,11.88,0,0,0-3.59-2.25,16.78,16.78,0,0,0-4.18-1.12,33.72,33.72,0,0,0-4.49-.27,37.44,37.44,0,0,0-11.54,2,34.19,34.19,0,0,0-10.2,5.21L241,193.1h15.27l6-42.66a6.75,6.75,0,0,1,3-1.75,12.23,12.23,0,0,1,3.41-.5,9.09,9.09,0,0,1,4.94,1.57,3.59,3.59,0,0,1,1.79,3.24v.67l-5.47,39.43h14.91l5.61-39.83A4.94,4.94,0,0,1,293,149.5,9.62,9.62,0,0,1,297.89,148.19Zm-165.53,126a10.66,10.66,0,0,1-3.55-.54A6.42,6.42,0,0,1,126.2,272a3.57,3.57,0,0,1-.9-2.51V269l2.79-19.85a5.63,5.63,0,0,1,1.75-3,9.11,9.11,0,0,1,3.1-1.8,11.24,11.24,0,0,1,3.68-.58,9,9,0,0,1,3.5.58,6.79,6.79,0,0,1,2.61,1.84,3.55,3.55,0,0,1,.85,2.47v.41L140.75,269a5.3,5.3,0,0,1-1.7,2.88,9,9,0,0,1-3.06,1.7A11.22,11.22,0,0,1,132.36,274.21ZM89.87,262.26H83.4l1.76-4.49h6.51ZM352.45,180a9,9,0,0,1-5.25-1.71,4.76,4.76,0,0,1-1.89-4,4.1,4.1,0,0,1,0-1l2.56-18.41a6.75,6.75,0,0,1,2.38-4.49,11.87,11.87,0,0,1,4.49-2.38,14.34,14.34,0,0,1,3.69-.45H360a10.84,10.84,0,0,1,4.49,1.48l-4,28.83a19.67,19.67,0,0,1-3.6,1.53A18.12,18.12,0,0,1,352.45,180Zm-180-19a25.59,25.59,0,0,1-7.86-1.21l.68-4.49a7.24,7.24,0,0,1,3.23-5.12,9.87,9.87,0,0,1,8.62-1.57,7.39,7.39,0,0,1,2.43,1.21,4.52,4.52,0,0,1,1.62,2.11,3.93,3.93,0,0,1,.44,2,3.29,3.29,0,0,1,0,1,5.92,5.92,0,0,1-3.18,4.49,11.83,11.83,0,0,1-6,1.57Z" transform="translate(0 -0.03)"/></svg>